<svg width="50" height="50" viewBox="0 0 50 50" fill="none" xmlns="http://www.w3.org/2000/svg">
<path d="M39.5833 0H10.4167C4.66458 0 0 4.66458 0 10.4167V39.5833C0 45.3354 4.66458 50 10.4167 50H39.5833C45.3375 50 50 45.3354 50 39.5833V10.4167C50 4.66458 45.3375 0 39.5833 0ZM33.3333 14.5833H29.325C28.0437 14.5833 27.0833 15.1083 27.0833 16.4354V18.75H33.3333L32.8375 25H27.0833V41.6667H20.8333V25H16.6667V18.75H20.8333V14.7437C20.8333 10.5312 23.05 8.33333 28.0437 8.33333H33.3333V14.5833Z" fill="#BFBFBF"/>
</svg>
