<svg width="100" height="100" viewBox="0 0 100 100" fill="none" xmlns="http://www.w3.org/2000/svg">
<path d="M50 0C22.3875 0 0 22.3875 0 50C0 77.6125 22.3875 100 50 100C77.6125 100 100 77.6125 100 50C100 22.3875 77.6125 0 50 0ZM62.5 33.3333H56.875C54.6333 33.3333 54.1667 34.2542 54.1667 36.575V41.6667H62.5L61.6292 50H54.1667V79.1667H41.6667V50H33.3333V41.6667H41.6667V32.05C41.6667 24.6792 45.5458 20.8333 54.2875 20.8333H62.5V33.3333Z" fill="#EBFF00" fill-opacity="0.75"/>
<path d="M50 0C22.3875 0 0 22.3875 0 50C0 77.6125 22.3875 100 50 100C77.6125 100 100 77.6125 100 50C100 22.3875 77.6125 0 50 0ZM62.5 33.3333H56.875C54.6333 33.3333 54.1667 34.2542 54.1667 36.575V41.6667H62.5L61.6292 50H54.1667V79.1667H41.6667V50H33.3333V41.6667H41.6667V32.05C41.6667 24.6792 45.5458 20.8333 54.2875 20.8333H62.5V33.3333Z" fill="url(#paint0_linear)"/>
<defs>
<linearGradient id="paint0_linear" x1="50" y1="0" x2="50" y2="100" gradientUnits="userSpaceOnUse">
<stop stop-color="#EBFF00"/>
<stop offset="0.744792" stop-color="#FE6B00"/>
</linearGradient>
</defs>
</svg>
